<svg width="24" height="24" viewBox="0 0 24 24" fill="none" xmlns="http://www.w3.org/2000/svg">
<g id="vuesax/bold/graph">
<g id="graph">
<path id="Vector" d="M21.6702 6.95C21.0302 4.78 19.2202 2.97 17.0502 2.33C15.4002 1.85 14.2602 1.89 13.4702 2.48C12.5202 3.19 12.4102 4.47 12.4102 5.38V7.87C12.4102 10.33 13.5302 11.58 15.7302 11.58H18.6002C19.5002 11.58 20.7902 11.47 21.5002 10.52C22.1102 9.74 22.1602 8.6 21.6702 6.95Z" fill="#18333E"/>
<path id="Vector_2" d="M18.9099 13.36C18.6499 13.06 18.2699 12.89 17.8799 12.89H14.2999C12.5399 12.89 11.1099 11.46 11.1099 9.7V6.12C11.1099 5.73 10.9399 5.35 10.6399 5.09C10.3499 4.83 9.9499 4.71 9.5699 4.76C7.2199 5.06 5.0599 6.35 3.6499 8.29C2.2299 10.24 1.7099 12.62 2.1599 15C2.8099 18.44 5.5599 21.19 9.0099 21.84C9.5599 21.95 10.1099 22 10.6599 22C12.4699 22 14.2199 21.44 15.7099 20.35C17.6499 18.94 18.9399 16.78 19.2399 14.43C19.2899 14.04 19.1699 13.65 18.9099 13.36Z" fill="#18333E"/>
</g>
</g>
</svg>
