<svg width="27" height="49" viewBox="0 0 27 49" fill="none" xmlns="http://www.w3.org/2000/svg">
<g id="Group 41">
<rect id="Rectangle 17" width="27" height="49" rx="13.5" fill="#F9D44A"/>
<path id="Vector" d="M10.7 18C10.8857 18 11.0637 18.0761 11.195 18.2115C11.3263 18.347 11.4 18.5307 11.4 18.7222V30.2778C11.4 30.4693 11.3263 30.653 11.195 30.7885C11.0637 30.9239 10.8857 31 10.7 31C10.5143 31 10.3363 30.9239 10.205 30.7885C10.0737 30.653 10 30.4693 10 30.2778V18.7222C10 18.5307 10.0737 18.347 10.205 18.2115C10.3363 18.0761 10.5143 18 10.7 18ZM16.3 18C16.4857 18 16.6637 18.0761 16.795 18.2115C16.9263 18.347 17 18.5307 17 18.7222V30.2778C17 30.4693 16.9263 30.653 16.795 30.7885C16.6637 30.9239 16.4857 31 16.3 31C16.1143 31 15.9363 30.9239 15.805 30.7885C15.6737 30.653 15.6 30.4693 15.6 30.2778V18.7222C15.6 18.5307 15.6737 18.347 15.805 18.2115C15.9363 18.0761 16.1143 18 16.3 18Z" fill="black"/>
</g>
</svg>
