<svg width="73" height="64" viewBox="0 0 73 64" fill="none" xmlns="http://www.w3.org/2000/svg">
<g id="Group 44">
<path id="Vector" d="M37.3549 0.0520172C37.2833 0.0844688 37.1791 0.162354 37.1205 0.227253C37.0619 0.298645 34.8345 3.82278 32.1708 8.07381C28.5172 13.8955 27.3254 15.8555 27.3058 16.0307C27.2472 16.5889 27.918 16.9328 28.3413 16.5694C28.4 16.5175 30.4905 13.2075 32.9979 9.20959C35.4988 5.21167 37.5698 1.94065 37.5894 1.94065C37.6219 1.94065 40.989 7.28202 47.6776 17.9713C48.0488 18.5619 48.8563 19.8469 49.4685 20.8269C50.0807 21.8069 51.1097 23.4424 51.7415 24.4614C52.3797 25.4803 53.1157 26.6486 53.3762 27.0574C53.6367 27.4663 54.3726 28.6345 55.0108 29.6535C57.2773 33.275 58.4105 35.0857 58.8989 35.8645C59.1725 36.2994 59.4004 36.6693 59.4004 36.6888C59.4004 36.7147 53.819 36.7277 46.9937 36.7277H34.587V35.0598V33.3918L34.8019 33.593C35.336 34.1057 36.2413 34.5211 37.1595 34.6833C37.8759 34.8066 38.2537 34.8066 38.4881 34.6833C38.8007 34.5276 38.8528 34.1252 38.6119 33.8396C38.4816 33.6968 38.397 33.6644 38.0062 33.6449C36.1175 33.5216 35.0104 32.6714 34.6782 31.0813C34.6261 30.8217 34.5935 30.5946 34.6131 30.5816C34.6261 30.5621 34.815 30.6919 35.0234 30.8606C35.7463 31.4448 36.9576 31.8601 37.9801 31.8601C38.3449 31.8601 38.436 31.8342 38.5858 31.6979C38.944 31.3734 38.7096 30.7633 38.2211 30.7503C36.6776 30.7179 35.4532 30.0753 34.9713 29.0499C34.7564 28.5826 34.587 27.8882 34.587 27.4209V27.1029L34.9713 27.4923C35.6291 28.1672 36.7492 28.8098 37.2572 28.8098C37.5959 28.8098 37.8369 28.4918 37.7782 28.0959C37.7522 27.9141 37.5177 27.7324 37.1661 27.6221C36.352 27.3625 35.5509 26.6356 35.108 25.7399C34.815 25.1493 34.6782 24.5847 34.6131 23.715C34.574 23.2347 34.5414 23.1114 34.4177 22.9881C34.2028 22.774 33.7534 22.7804 33.545 23.0011C33.4147 23.1374 33.3887 23.2607 33.3431 23.8254C33.2845 24.6756 33.1998 25.0195 32.8872 25.6685C32.5681 26.3435 32.0601 26.8627 31.4284 27.1678C31.1809 27.2846 30.9074 27.3819 30.8227 27.3819C30.5947 27.3819 30.2886 27.7194 30.2886 27.9661C30.2886 28.2192 30.5947 28.5502 30.8292 28.5502C31.2851 28.5502 32.3597 28.0115 32.9068 27.5117C33.1412 27.3041 33.3496 27.1418 33.3692 27.1613C33.4213 27.2197 33.3496 27.9531 33.2519 28.3555C32.9068 29.7443 31.9038 30.5232 30.2235 30.6919C29.4355 30.7763 29.3964 30.7893 29.2727 31.0229C29.1424 31.276 29.2075 31.5551 29.4225 31.7303C29.9435 32.1392 32.1708 31.5616 33.0761 30.7893L33.3496 30.5491V30.7373C33.3496 31.3539 32.9068 32.3015 32.4183 32.7428C31.8582 33.2425 30.8878 33.6125 30.1063 33.6125C29.9174 33.6125 29.6634 33.6514 29.5462 33.7033C29.1229 33.8786 29.0968 34.4821 29.5071 34.7028C29.722 34.8196 30.5426 34.7612 31.233 34.5925C31.8452 34.4367 32.7114 34.0213 33.0826 33.6968C33.3887 33.4437 33.4278 33.4762 33.3887 33.937C33.3757 34.0992 33.3626 34.7937 33.3561 35.4751L33.3496 36.7277H28.3348H23.3201V34.547V32.3664L23.6262 32.6389C23.9844 32.9505 24.8245 33.3723 25.3716 33.5151C25.9317 33.6644 26.9346 33.7163 27.1235 33.6125C27.4556 33.4372 27.5077 33.0413 27.2342 32.7623C27.0649 32.6 26.9932 32.574 26.6611 32.574C25.7884 32.5676 24.831 32.2236 24.2514 31.7044C23.8736 31.3604 23.5545 30.8087 23.4243 30.2506C23.3331 29.8482 23.3591 29.7573 23.522 29.952C23.6522 30.1078 24.1211 30.4193 24.5575 30.6335C25.4041 31.0489 26.9411 31.2371 27.2277 30.9515C27.5012 30.6789 27.4426 30.2506 27.117 30.0883C27.0193 30.0364 26.6871 29.978 26.381 29.9585C25.1501 29.8741 24.1537 29.2835 23.6848 28.3684C23.5154 28.031 23.3201 27.3495 23.3201 27.0704C23.3201 26.9276 23.3396 26.9341 23.6327 27.1872C24.3165 27.7973 25.5344 28.2257 26.5634 28.2257C27.0062 28.2257 27.117 28.2062 27.2277 28.0959C27.4035 27.9206 27.4491 27.6805 27.3449 27.4728C27.2277 27.2262 27.0062 27.1223 26.5699 27.1223C26.0814 27.1223 25.2869 26.9147 24.8115 26.6615C24.3556 26.4214 23.9192 25.9671 23.6848 25.5128C23.5154 25.1753 23.3201 24.4938 23.3201 24.2148C23.3201 24.072 23.3396 24.0785 23.6262 24.3316C24.0234 24.6756 24.844 25.0779 25.4953 25.2402C25.9903 25.3635 26.902 25.4154 27.13 25.3311C27.2928 25.2662 27.4361 24.9287 27.3905 24.721C27.3189 24.3965 27.156 24.3186 26.4722 24.2602C24.7919 24.1174 23.7499 23.3191 23.4178 21.9173C23.3656 21.6901 23.3201 21.437 23.3201 21.3591C23.3201 21.2163 23.3396 21.2228 23.6131 21.4629C24.2905 22.0535 25.326 22.443 26.3875 22.4949C27.0323 22.5273 27.0909 22.5208 27.2147 22.3975C27.4035 22.2093 27.4491 21.9757 27.3449 21.7615C27.2277 21.5149 27.0062 21.411 26.5699 21.411C26.114 21.411 25.326 21.2163 24.8831 20.9892C23.8932 20.4894 23.3266 19.451 23.3201 18.14V17.6922L23.828 18.1789C24.6682 18.9967 25.9186 19.7041 26.6415 19.769C26.9672 19.8015 27.1951 19.6587 27.2668 19.3666C27.3514 19.0421 27.1756 18.8734 26.4657 18.5813C25.606 18.2374 25.059 17.8804 24.4989 17.2898C23.789 16.5434 23.3201 15.4077 23.3201 14.4341C23.3201 14.1031 23.1898 13.7916 23.027 13.7267C22.773 13.6294 22.4343 13.6878 22.278 13.85C22.1543 13.9863 22.1217 14.1096 22.0826 14.6094C22.0305 15.2908 21.9459 15.6218 21.7179 16.141C21.223 17.2573 20.1809 18.1465 18.7807 18.6527C18.5332 18.7436 18.2988 18.8669 18.2597 18.9253C18.1164 19.1135 18.1555 19.4899 18.3378 19.6587C18.4746 19.7885 18.5397 19.8015 18.8263 19.769C19.2171 19.7236 20.194 19.2758 20.7866 18.8734C21.0146 18.7241 21.3988 18.3996 21.6463 18.153C21.8873 17.9128 22.1022 17.7117 22.1282 17.7117C22.1934 17.7117 22.0826 18.7825 21.9784 19.1849C21.7765 19.9702 21.3011 20.5673 20.5978 20.9437C20.1158 21.1968 19.3213 21.411 18.8458 21.411C18.4681 21.411 18.149 21.5343 18.0838 21.7031C17.9927 21.9432 18.0448 22.2353 18.2076 22.3845C18.3574 22.5208 18.403 22.5273 19.0021 22.4949C20.0572 22.4365 20.8387 22.1769 21.6007 21.6317L22.0826 21.2877V21.5019C22.0826 22.112 21.5877 23.0855 21.0732 23.4879C20.4935 23.9487 19.5687 24.2667 18.8263 24.2667C18.4681 24.2667 18.149 24.39 18.0838 24.5587C17.9992 24.7924 18.0448 25.0909 18.1946 25.2272C18.3248 25.344 18.4225 25.37 18.8198 25.37C19.8097 25.37 20.8127 25.052 21.6007 24.4873L22.0826 24.1434V24.3575C22.0826 24.9871 21.5486 26.019 21.0276 26.389C20.3893 26.8368 19.5492 27.1223 18.8263 27.1223C18.4681 27.1223 18.149 27.2456 18.0838 27.4144C17.9992 27.648 18.0448 27.9466 18.1946 28.0829C18.3248 28.2062 18.4225 28.2257 18.8654 28.2257C19.8227 28.2257 20.8973 27.8687 21.6789 27.2911L22.0826 26.9925V27.2132C22.0826 27.5766 21.8352 28.2516 21.5551 28.6735C21.0471 29.4328 19.9204 29.9715 18.8393 29.978C18.4681 29.978 18.149 30.1013 18.0838 30.27C17.9992 30.5037 18.0448 30.8022 18.1946 30.9385C18.3248 31.0618 18.4225 31.0813 18.8654 31.0813C19.8423 31.0813 21.0211 30.6854 21.757 30.1013L22.0892 29.8417L22.0436 30.0883C21.8156 31.3279 20.9169 32.1911 19.5687 32.4767C19.3213 32.5286 18.9566 32.574 18.7547 32.574C18.4551 32.574 18.3574 32.6065 18.2141 32.7363C17.9731 32.9634 17.9731 33.3529 18.2271 33.5476C18.3899 33.6839 18.4551 33.6903 19.0217 33.6579C19.3603 33.6384 19.8162 33.5735 20.0311 33.5151C20.5652 33.3788 21.3272 33.0089 21.731 32.6974C21.9133 32.5611 22.0761 32.4442 22.0892 32.4442C22.1152 32.4442 22.0826 36.6823 22.0566 36.7147C22.0436 36.7212 20.6303 36.7212 18.9044 36.7147L15.7718 36.6953L16.6445 35.2999C17.3544 34.1771 17.5238 33.8591 17.5238 33.6709C17.5238 33.1841 17.0158 32.8856 16.5859 33.1192C16.3059 33.2685 13.9874 36.9679 13.9548 37.3183C13.9222 37.6169 14.0199 37.7986 14.2674 37.9284C14.4367 38.0128 17.0418 38.0257 37.674 38.0128L60.8983 37.9933L61.0742 37.8181C61.4193 37.4741 61.3672 37.3248 60.3187 35.6569C59.3939 34.1836 58.0914 32.1068 56.1506 29.0045C55.6035 28.1283 54.8676 26.9601 54.5159 26.4084C54.1642 25.8568 53.3566 24.5717 52.7249 23.5528C39.8493 2.99205 38.0388 0.136391 37.8304 0.0649986C37.5959 -0.0193748 37.5373 -0.0193748 37.3549 0.0520172Z" fill="#18333E"/>
<path id="Vector_2" d="M40.1505 11.3133C40.03 11.4292 38.4892 13.2053 37.0244 14.9364C36.6185 15.4126 36.2698 15.863 36.2444 15.9274C36.1556 16.1848 36.3205 16.4487 36.7771 16.764C37.0244 16.9377 37.2209 17.0922 37.2209 17.1179C37.2209 17.1437 36.5678 17.8322 35.7688 18.6431C34.9762 19.4539 34.285 20.1875 34.2406 20.2712C34.0884 20.5672 34.285 21.0177 34.5894 21.0498C34.9762 21.0949 35.0142 21.0627 36.7961 19.2609C37.7663 18.2827 38.6033 17.3946 38.654 17.2981C38.8506 16.9249 38.6731 16.6803 37.7916 16.0883L37.6395 15.9853L37.9819 15.567C38.1721 15.3354 38.6287 14.8012 38.9964 14.3829C41.0193 12.0598 41.0256 12.0469 41.0256 11.7381C41.0256 11.3326 40.4486 11.0559 40.1505 11.3133Z" fill="#18333E"/>
<path id="Vector_3" d="M14.7607 40.7939C13.9887 40.9195 13.1535 41.3402 12.603 41.8802C11.9006 42.571 11.5589 43.3246 11.4956 44.3419C11.3754 46.2634 12.565 47.8396 14.4823 48.3169C15.0075 48.4424 16.1781 48.4424 16.716 48.3106C18.1777 47.9589 19.2977 46.8349 19.6014 45.4282C20.0443 43.3371 18.8357 41.403 16.7476 40.8755C16.2857 40.7562 15.2416 40.7122 14.7607 40.7939ZM16.4186 42.3575C17.6714 42.7971 18.2789 44.3607 17.7031 45.6417C16.9058 47.4 14.2735 47.3938 13.4572 45.6355C13.2927 45.2838 13.2737 45.177 13.28 44.6119C13.28 43.7955 13.4319 43.3999 13.9065 42.9101C14.4253 42.3889 15.0328 42.1691 15.8048 42.2382C16.0136 42.257 16.292 42.3073 16.4186 42.3575Z" fill="#18333E"/>
<path id="Vector_4" d="M38.5243 40.7843L37.6892 40.8099V43.0888V45.374L36.9169 44.4175C36.4962 43.8976 35.6737 42.8705 35.0835 42.1323L34.0224 40.8035H33.2815H32.5469L32.5783 44.5395C32.5971 46.6001 32.6097 48.3076 32.6097 48.3461C32.6034 48.3846 32.9173 48.4103 33.4196 48.4103C33.8717 48.4103 34.2359 48.3974 34.2359 48.3782C34.2359 48.3589 34.2359 47.3768 34.2421 46.1957C34.2421 45.0081 34.2673 44.0067 34.2924 43.9618C34.3175 43.9168 35.027 44.7449 36.1572 46.1507L37.9843 48.4103H38.6813H39.3845V44.5716C39.3845 42.4661 39.3782 40.7458 39.3719 40.7522C39.3594 40.7586 38.9764 40.7779 38.5243 40.7843Z" fill="#18333E"/>
<path id="Vector_5" d="M41.8462 41.4947V42.2373L43.0454 42.2179L44.2446 42.1985V45.3044C44.2446 48.0164 44.2572 48.4038 44.3393 48.4038C44.3898 48.4103 44.7811 48.4103 45.2103 48.4103H45.9803L45.9992 45.3109L46.0119 42.205H47.2111H48.4103V41.4947V40.7844L45.1282 40.7715L41.8462 40.7522V41.4947Z" fill="#18333E"/>
<path id="Vector_6" d="M0.038995 42.5423C0.0649916 43.5311 0.0844891 45.2566 0.0844891 46.3746V48.4103H0.896884H1.70928L1.72228 46.2776C1.72228 45.1015 1.72878 44.1062 1.72228 44.0545C1.71578 43.8994 1.85226 44.0933 2.64516 45.4052C3.0676 46.0967 3.54204 46.8787 3.70452 47.1307L3.99048 47.6025H4.39993H4.80938L5.91423 45.7606L7.01909 43.9123L7.05809 45.1855C7.08408 45.8899 7.10358 46.8916 7.10358 47.415V48.3715L7.91598 48.3909C8.36442 48.4038 8.73487 48.3909 8.74787 48.365C8.75437 48.3327 8.75437 46.6137 8.74137 44.5327L8.72837 40.7522H7.98747H7.24656L6.34968 42.2515C4.32194 45.6637 4.43243 45.4892 4.34794 45.36C4.30244 45.2953 3.65903 44.2355 2.91812 42.9947L1.5663 40.7522H0.786398H0L0.038995 42.5423Z" fill="#18333E"/>
<path id="Vector_7" d="M22.4272 43.2399C22.4272 45.1337 22.4528 45.8397 22.5167 46.1763C22.7212 47.1661 23.2644 47.9183 24.0504 48.3011C24.6575 48.598 25.0473 48.6838 25.8269 48.6838C27.3414 48.6838 28.3319 48.1493 28.8814 47.0209C29.2329 46.3017 29.2649 45.9981 29.2649 43.2399V40.7522H28.4086H27.5459L27.5267 43.3058C27.5075 45.8199 27.5075 45.8727 27.3605 46.1961C27.041 46.9087 26.5426 47.1925 25.7246 47.1397C24.9706 47.0869 24.568 46.7834 24.306 46.0641C24.191 45.7606 24.1846 45.5428 24.2037 43.2399L24.2229 40.7522H23.3219H22.4272V43.2399Z" fill="#18333E"/>
<path id="Vector_8" d="M52.6361 41.289C52.5064 41.5801 52.2924 42.0522 52.1693 42.3368C52.0396 42.6214 51.3912 44.0897 50.7169 45.6032C50.0426 47.1167 49.498 48.3585 49.5045 48.3715C49.5109 48.3779 49.9194 48.3909 50.4122 48.3973L51.3069 48.4103L51.6376 47.5888L51.9683 46.7674H53.7513H55.5343L55.865 47.5824L56.1956 48.3909H56.9802C57.4146 48.3909 57.8425 48.3909 57.9268 48.3844C58.0694 48.3844 58.0111 48.2421 56.9024 45.7455C56.254 44.2966 55.4889 42.5826 55.2101 41.9358L54.6914 40.7586L53.7837 40.7522H52.876L52.6361 41.289ZM54.5164 44.3225L54.9702 45.4091H53.7772C53.1224 45.4091 52.5842 45.3962 52.5842 45.3833C52.5842 45.3574 53.3558 43.4881 53.654 42.7896L53.7642 42.5373L53.9134 42.8866C53.9912 43.0806 54.2635 43.7274 54.5164 44.3225Z" fill="#18333E"/>
<path id="Vector_9" d="M60.2003 44.578L60.2356 48.4103L60.9473 48.4038C61.3414 48.3973 61.7002 48.3909 61.7413 48.3909C61.7943 48.3909 61.8119 47.5817 61.8119 44.5715V40.7522H60.9885H60.1709L60.2003 44.578Z" fill="#18333E"/>
<path id="Vector_10" d="M65.0942 44.5651V48.378L65.8119 48.3844C66.2098 48.3909 66.6078 48.3909 66.6991 48.3974L66.8622 48.4038V46.1678C66.8557 44.9334 66.8818 43.9123 66.9079 43.8994C66.934 43.88 67.8082 44.8882 68.8455 46.1355L70.7375 48.3974L71.4681 48.4038L72.2053 48.4103V44.578V40.7522H71.3246H70.4439L70.4308 43.0399L70.4113 45.3276L69.6284 44.3906C69.1978 43.8736 68.6824 43.2532 68.4867 43.0141C68.291 42.7749 67.8213 42.2127 67.4429 41.7539C67.0645 41.3015 66.7318 40.8879 66.7057 40.8426C66.6665 40.7715 66.4708 40.7522 65.8771 40.7522H65.0942V44.5651Z" fill="#18333E"/>
<path id="Vector_11" d="M35.646 53.1001C34.9109 53.252 34.2971 53.7342 34.0678 54.3419C33.6699 55.3724 34.0678 56.449 35.0188 56.9643C35.3628 57.1492 35.4302 57.1624 36.1249 57.1624C36.8196 57.1624 36.8938 57.1492 37.2715 56.9643L37.6762 56.7595L37.6964 55.9536L37.7166 55.1478H37.4064H37.1029V55.8149V56.4755L36.887 56.5679C36.0305 56.9114 35.0525 56.601 34.6681 55.8612C34.3308 55.2138 34.4657 54.4872 35.012 54.005C35.6191 53.47 36.4621 53.4106 37.1366 53.8663L37.3861 54.0315L37.5615 53.8531L37.7436 53.6814L37.5143 53.4898C37.1029 53.153 36.2396 52.9746 35.646 53.1001Z" fill="#18333E"/>
<path id="Vector_12" d="M43.0517 53.0959C42.3873 53.2266 41.7714 53.6514 41.4807 54.1742C41.28 54.5401 41.2385 55.3831 41.3908 55.8275C41.7091 56.7293 42.7956 57.2979 43.896 57.1345C44.3043 57.0757 44.8718 56.8339 45.031 56.6574C45.114 56.5659 45.1002 56.5267 44.948 56.383L44.7749 56.2196L44.4981 56.3895C43.4462 57.0495 42.0413 56.4614 41.8752 55.2982C41.7714 54.5924 42.2697 53.8474 42.9756 53.6514C43.5708 53.488 44.0344 53.5468 44.512 53.854L44.7749 54.0173L44.9549 53.854L45.1279 53.6906L44.9687 53.5272C44.6296 53.1809 43.6884 52.9718 43.0517 53.0959Z" fill="#18333E"/>
<path id="Vector_13" d="M13.9487 55.1144V57.1624L14.215 57.1426L14.4751 57.1228L14.4937 56.2111L14.5123 55.306H15.5898H16.6735V56.2309V57.1558H16.9521H17.2308V55.1078V53.0599H16.9521H16.6735V53.9451V54.8238L15.5898 54.837L14.5061 54.8502V53.9583V53.0599H14.2274H13.9487V55.1144Z" fill="#18333E"/>
<path id="Vector_14" d="M19.1637 55.088L19.1911 57.1228L19.5831 57.1426L19.966 57.1624V55.1144V53.0599H19.5558H19.1455L19.1637 55.088Z" fill="#18333E"/>
<path id="Vector_15" d="M21.6202 55.0947L21.6401 57.1229L21.9252 57.1427L22.2036 57.1624V56.6158V56.0627L22.555 55.7203C22.7473 55.5293 22.9196 55.3778 22.9462 55.3778C22.966 55.3778 23.3373 55.7795 23.7616 56.2668L24.5373 57.1558H24.8688C25.0478 57.1558 25.1804 57.1295 25.1605 57.1031C25.1473 57.0768 24.7296 56.5632 24.2323 55.9705L23.3373 54.8971L24.1992 54.0015L25.0677 53.1059L24.7428 53.0862L24.4246 53.0599L23.3174 54.2057L22.2102 55.3449L22.2036 54.2057V53.073H21.9053H21.6069L21.6202 55.0947Z" fill="#18333E"/>
<path id="Vector_16" d="M26.5419 55.088L26.5602 57.1228L26.8215 57.1426L27.0768 57.1624V55.1144V53.0599H26.8033H26.5298L26.5419 55.088Z" fill="#18333E"/>
<path id="Vector_17" d="M29.0046 55.088L29.0248 57.1228L29.3132 57.1426L29.595 57.1624V55.6363V54.1037L29.9505 54.5331C30.1384 54.7643 30.7019 55.4514 31.1983 56.0591C32.0369 57.0831 32.1174 57.1558 32.3254 57.1558H32.5468V55.1078V53.0599H32.2784H32.0101V54.5463C32.0101 55.3655 31.99 56.0327 31.9631 56.0327C31.9296 56.0327 31.3661 55.3655 30.7019 54.5463C29.5145 53.0863 29.4876 53.0599 29.2394 53.0599H28.9912L29.0046 55.088Z" fill="#18333E"/>
<path id="Vector_18" d="M46.4956 55.1111V57.1624H47.8631H49.2306V56.8977V56.6331H48.1562H47.0817V54.8465V53.0599H46.7886H46.4956V55.1111Z" fill="#18333E"/>
<path id="Vector_19" d="M50.5981 54.4668C50.5981 56.0456 50.6484 56.3164 50.9943 56.6929C51.2772 57.0034 51.6481 57.1553 52.1197 57.1619C52.9182 57.1751 53.3583 56.9373 53.6476 56.3296L53.8362 55.9333L53.855 54.4933L53.8802 53.0599H53.591H53.3017V54.4272C53.3017 55.6162 53.2829 55.8342 53.1823 56.0654C53.0251 56.4287 52.8742 56.5542 52.4781 56.6401C51.8116 56.7788 51.2961 56.4617 51.1703 55.8342C51.1326 55.6492 51.1011 54.949 51.1011 54.2819V53.0599H50.8496H50.5981V54.4668Z" fill="#18333E"/>
<path id="Vector_20" d="M55.7949 55.1111V57.1624H56.7759C58.1949 57.1624 58.6946 57.0305 58.9476 56.5886C59.108 56.3182 59.1204 55.8235 58.9785 55.5333C58.8859 55.3288 58.5836 55.0518 58.4602 55.0518C58.4232 55.0518 58.4911 54.9528 58.6021 54.8341C58.9414 54.4713 58.9661 53.8711 58.6638 53.515C58.3368 53.139 58.2072 53.106 56.9548 53.0862L55.7949 53.0599V55.1111ZM57.9543 53.6403C58.2381 53.7656 58.3245 53.8975 58.3245 54.2075C58.3183 54.689 57.9913 54.8539 57.0288 54.8539H56.3502V54.1943V53.5347H57.0288C57.5101 53.5347 57.7754 53.5677 57.9543 53.6403ZM58.1764 55.4145C58.4602 55.5399 58.5898 55.8565 58.5034 56.1994C58.4047 56.5688 58.2011 56.6479 57.2016 56.6875L56.3502 56.7205V56.0148V55.3156H57.1522C57.7198 55.3156 58.0222 55.342 58.1764 55.4145Z" fill="#18333E"/>
<path id="Vector_21" d="M29.5083 63.1998C29.2291 63.266 29.1706 63.8676 29.4369 63.9639C29.4953 63.982 33.4891 64 38.3206 64H47.0939L47.2108 63.8737C47.3537 63.7052 47.3537 63.5066 47.1979 63.3322L47.0745 63.1878L38.3466 63.1817C33.554 63.1757 29.5732 63.1817 29.5083 63.1998Z" fill="#18333E"/>
</g>
</svg>
