<svg width="19" height="19" viewBox="0 0 19 19" fill="none" xmlns="http://www.w3.org/2000/svg">
<g id="Group">
<path id="Vector" d="M9.00991 0.0427151C8.54953 0.194937 8.63863 0.109545 4.43209 4.30866C2.2193 6.51775 0.355497 8.41125 0.284955 8.5152C0.00278606 8.93474 -0.0788944 9.57334 0.0807537 10.056C0.322082 10.7726 0.893845 11.1958 1.71436 11.2626L2.00767 11.2886L2.01881 14.3182C2.02995 17.2884 2.03366 17.3515 2.10791 17.552C2.38637 18.2872 2.85046 18.7401 3.5299 18.9406C3.70439 18.9926 3.98285 19 5.51621 19C7.2315 19 7.30576 18.9963 7.42457 18.9257C7.4914 18.8849 7.57679 18.7995 7.61763 18.7327C7.68817 18.6139 7.69188 18.5396 7.69188 16.2526C7.69188 14.6449 7.70674 13.8467 7.73272 13.7465C7.79584 13.5237 7.97034 13.2972 8.16712 13.1821L8.34161 13.0782H9.51484H10.6881L10.87 13.1896C11.0742 13.3158 11.2673 13.6017 11.3081 13.8281C11.3192 13.9061 11.3304 15.0088 11.3304 16.2823C11.3304 18.7884 11.323 18.6918 11.5346 18.8886L11.6348 18.9814L13.4207 18.9926C14.6162 19 15.2733 18.9889 15.4033 18.9629C15.9156 18.8552 16.5097 18.4022 16.7436 17.9419C17.0035 17.4221 16.9886 17.6337 17.0035 14.2997L17.0146 11.2849L17.319 11.2589C18.0653 11.1958 18.5554 10.8691 18.8635 10.2379C18.9935 9.96317 18.9972 9.95204 18.9972 9.49537C18.9972 9.03499 18.9972 9.02756 18.8561 8.73425C18.715 8.43724 18.7113 8.43352 14.6421 4.36435C10.5693 0.29147 10.5693 0.29147 10.2722 0.150385C9.99007 0.0167255 9.95295 0.00930023 9.56682 0.00187492C9.30322 -0.00555038 9.10644 0.00930023 9.00991 0.0427151Z" fill="#18333E"/>
</g>
</svg>
