<svg width="20" height="20" viewBox="0 0 20 20" fill="none" xmlns="http://www.w3.org/2000/svg">
<g id="vuesax/bold/logout">
<g id="logout">
<path id="Vector" d="M6 18.3333L8.16667 18.3333C10.8333 18.3333 12.5 16.6667 12.5 14L12.5 10.625L7.29167 10.625C6.95 10.625 6.66667 10.3417 6.66667 10C6.66667 9.65834 6.95 9.37501 7.29167 9.37501L12.5 9.37501L12.5 6.00001C12.5 3.33335 10.8333 1.66668 8.16667 1.66668L6.00833 1.66668C3.34167 1.66668 1.675 3.33335 1.675 6.00001L1.675 14C1.66667 16.6667 3.33333 18.3333 6 18.3333Z" fill="#FF7F5C"/>
<path id="Vector_2" d="M16.1998 10.625L14.4748 12.35C14.3498 12.475 14.2915 12.6333 14.2915 12.7917C14.2915 12.95 14.3498 13.1167 14.4748 13.2333C14.7165 13.475 15.1165 13.475 15.3581 13.2333L18.1498 10.4417C18.3915 10.2 18.3915 9.8 18.1498 9.55833L15.3581 6.76666C15.1165 6.525 14.7165 6.525 14.4748 6.76666C14.2331 7.00833 14.2331 7.40833 14.4748 7.65L16.1998 9.375L12.4998 9.375L12.4998 10.625L16.1998 10.625Z" fill="#FF7F5C"/>
</g>
</g>
</svg>
