<svg width="24" height="24" viewBox="0 0 24 24" fill="none" xmlns="http://www.w3.org/2000/svg">
<g id="vuesax/bold/microscope">
<g id="microscope">
<path id="Vector" d="M14.8401 10.9L20.5001 7.11C21.0701 6.73 21.2201 5.95 20.8401 5.39L19.0201 2.68C18.6401 2.11 17.8601 1.96 17.3001 2.34L11.6401 6.13L14.8401 10.9Z" fill="#18333E"/>
<path id="Vector_2" d="M14.5202 10.42L12.7602 11.6L10.0902 13.39L9.74018 13.62L9.58018 13.38L7.34018 10.04L7.18018 9.8L11.9602 6.6L14.5202 10.42Z" fill="#18333E"/>
<path id="Vector_3" d="M5.6401 16.02L9.5901 13.38L7.3501 10.04L3.4001 12.68C2.9401 12.99 2.8201 13.61 3.1301 14.07L4.2601 15.75C4.5601 16.21 5.1801 16.33 5.6401 16.02Z" fill="#18333E"/>
<path id="Vector_4" d="M16.5599 21.81C16.4599 21.85 16.3499 21.88 16.2499 21.88C15.9599 21.88 15.6899 21.71 15.5599 21.43L11.8299 13.19L8.0499 21.44C7.9199 21.71 7.6499 21.88 7.3599 21.88C7.2599 21.88 7.1499 21.85 7.0499 21.81C6.6799 21.63 6.5099 21.19 6.6799 20.81L10.0899 13.39L12.7599 11.6L16.9299 20.82C17.0999 21.19 16.9299 21.64 16.5599 21.81Z" fill="#18333E"/>
</g>
</g>
</svg>
