<svg width="22" height="22" viewBox="0 0 22 22" fill="none" xmlns="http://www.w3.org/2000/svg">
<g id="vuesax/bold/notification-bing">
<g id="notification-bing">
<path id="Vector" d="M18.5073 12.8883L17.4714 11.165C17.2423 10.7892 17.0406 10.065 17.0406 9.62498V7.91082C17.0406 4.58332 14.3364 1.87915 11.0181 1.87915C7.69061 1.88832 4.98645 4.58332 4.98645 7.91082V9.61582C4.98645 10.0558 4.78478 10.78 4.56478 11.1558L3.52895 12.8792C3.13478 13.5483 3.04311 14.3091 3.29061 14.9691C3.53811 15.6383 4.09728 16.17 4.83061 16.4083C5.82061 16.7383 6.81978 16.9766 7.83728 17.1508C7.93811 17.1691 8.03895 17.1783 8.13978 17.1967C8.26811 17.215 8.40561 17.2333 8.54311 17.2516C8.78145 17.2883 9.01978 17.3158 9.26728 17.3342C9.84478 17.3892 10.4314 17.4167 11.0181 17.4167C11.5956 17.4167 12.1731 17.3892 12.7414 17.3342C12.9523 17.3158 13.1631 17.2975 13.3648 17.27C13.5298 17.2517 13.6948 17.2333 13.8598 17.2058C13.9606 17.1967 14.0614 17.1783 14.1623 17.16C15.1889 16.995 16.2064 16.7383 17.1964 16.4083C17.9023 16.17 18.4431 15.6383 18.6998 14.96C18.9564 14.2725 18.8831 13.5208 18.5073 12.8883ZM11.6873 9.16665C11.6873 9.55165 11.3756 9.86332 10.9906 9.86332C10.6056 9.86332 10.2939 9.55165 10.2939 9.16665V6.32498C10.2939 5.93998 10.6056 5.62832 10.9906 5.62832C11.3756 5.62832 11.6873 5.93998 11.6873 6.32498V9.16665Z" fill="#18333E"/>
<path id="Vector_2" d="M13.5942 18.3425C13.2092 19.4058 12.1917 20.1666 11 20.1666C10.2759 20.1666 9.56087 19.8733 9.05671 19.3508C8.76337 19.0758 8.54337 18.7091 8.41504 18.3333C8.53421 18.3516 8.65337 18.3608 8.78171 18.3791C8.99254 18.4066 9.21254 18.4341 9.43254 18.4525C9.95504 18.4983 10.4867 18.5258 11.0184 18.5258C11.5409 18.5258 12.0634 18.4983 12.5767 18.4525C12.7692 18.4341 12.9617 18.425 13.145 18.3975C13.2917 18.3791 13.4384 18.3608 13.5942 18.3425Z" fill="#18333E"/>
</g>
</g>
</svg>
