<svg width="15" height="15" viewBox="0 0 15 15" fill="none" xmlns="http://www.w3.org/2000/svg">
<path id="Vector" d="M8.80321 1.08425L10.1252 3.7459C10.3033 4.11401 10.7815 4.46323 11.1846 4.53874L13.5754 4.93515C15.1036 5.18999 15.4599 6.30374 14.363 7.41748L12.4972 9.29574C12.1878 9.60721 12.0097 10.2207 12.1128 10.6643L12.6472 12.9862C13.0691 14.8173 12.0941 15.5346 10.4908 14.5719L8.25005 13.2316C7.8469 12.9862 7.17185 12.9862 6.7687 13.2316L4.52792 14.5719C2.92469 15.5251 1.94962 14.8173 2.37152 12.9862L2.90594 10.6643C2.99032 10.2113 2.81218 9.59777 2.50278 9.2863L0.637031 7.40804C-0.459919 6.30374 -0.103644 5.18999 1.42459 4.92572L3.81537 4.5293C4.21853 4.46323 4.69668 4.10457 4.87482 3.73647L6.19679 1.07481C6.91871 -0.35984 8.08129 -0.359839 8.80321 1.08425Z" fill="#FEC65C"/>
</svg>
